<?xml version="1.0" encoding="UTF-8"?>
<svg id="Layer_1" data-name="Layer 1" xmlns="http://www.w3.org/2000/svg" viewBox="0 0 108 76.66">
  <defs>
    <style>
      .cls-1 {
        fill: none;
      }

      .cls-1, .cls-2, .cls-3, .cls-4 {
        stroke-width: 0px;
      }

      .cls-3 {
        fill: #268c43;
      }

      .cls-4 {
        fill: #231f20;
      }
    </style>
  </defs>
  <g>
    <g>
      <path class="cls-1" d="M28.94,43.74c-.47-.81-.92-1.71-1.35-2.69l-.29-.67-.64.35c-.85.45-1.69.88-2.52,1.3-4.73,2.39-10.97,5.14-17.25,5.14h-.01c-1.46,0-2.89-.15-4.22-.45-.15-.04-.29-.04-.4-.04-.97,0-1.77.75-1.96,1.84-.21,1.22.5,2.42,1.59,2.66,1.6.36,3.29.54,5.01.54,7.03,0,13.79-2.96,18.89-5.54.89-.45,1.83-.95,2.89-1.51l.62-.33-.36-.6ZM25.48,45.58c-6.5,3.28-15.03,6.82-23.45,4.94-.73-.16-1.21-1.01-1.06-1.89.13-.75.66-1.28,1.29-1.28.09,0,.16,0,.24.03,7.73,1.72,15.78-1.63,21.95-4.75.83-.42,1.67-.86,2.52-1.31.43.96.89,1.9,1.39,2.76-.95.51-1.92,1.01-2.88,1.5Z"/>
      <path class="cls-3" d="M28.36,44.08c-.95.51-1.92,1.01-2.88,1.5-6.5,3.28-15.03,6.82-23.45,4.94-.73-.16-1.21-1.01-1.06-1.89.13-.75.66-1.28,1.29-1.28.09,0,.16,0,.24.03,7.73,1.72,15.78-1.63,21.95-4.75.83-.42,1.67-.86,2.52-1.31.43.96.89,1.9,1.39,2.76Z"/>
      <path class="cls-3" d="M26.97,41.32c-.85.45-1.69.89-2.52,1.31-6.17,3.12-14.22,6.47-21.95,4.75-.08-.02-.15-.03-.24-.03-.63,0-1.16.53-1.29,1.28-.15.88.33,1.73,1.06,1.89,8.42,1.88,16.95-1.66,23.45-4.94.96-.49,1.93-.99,2.88-1.5-.5-.86-.96-1.8-1.39-2.76Z"/>
      <path class="cls-3" d="M46.17,36.26s-.07-.07-.11-.11c-.11-.13-.2-.26-.28-.4.09.14.18.27.29.4.03.04.06.07.1.11Z"/>
      <path class="cls-1" d="M106.93,37.93c-1.04-2.93-3.18-5.31-5.76-6.36-.96-.39-1.92-.59-2.87-.59-1.02,0-2.01.23-2.93.69-.73.35-1.2,1.17-1.2,2.07,0,.38.08.74.23,1.06.21.47.56.84.99,1.05.25.12.51.18.78.18s.52-.06.77-.18c.43-.22.89-.32,1.37-.32s.98.1,1.5.31c1.52.62,2.8,2.04,3.41,3.79,1.24,3.52.34,8.23-2.15,11.19-2.06,2.45-5.03,3.8-8.39,3.8-.29,0-.59-.01-.89-.03-1.12-.08-2.05-.32-2.79-.73.47-.84.83-1.74,1.08-2.69.32-1.22.43-3.03-.25-4.47-.47-.99-1.24-1.63-2.16-1.81-.17-.04-.35-.06-.53-.06-.84,0-1.67.4-2.37,1.16-.99,1.05-1.56,2.58-1.63,4.3-.05,1.13.12,2.28.49,3.36-.15.09-.3.19-.47.28-.74.41-1.53.63-2.28.63-.67,0-1.3-.17-1.87-.5-1.24-.71-2.31-1.98-3.47-4.11-.04-.06-.07-.13-.1-.19-.08-.14-.15-.28-.23-.42-.04-.07-.07-.14-.1-.21-.4-.78-.79-1.59-1.2-2.47l-.07-.15s-.36-.75-.47-.98c-.16-.33-.32-.66-.48-.98-.11-.23-.23-.45-.35-.68l-.33-.63c-.12-.22-.24-.44-.36-.65-.05-.09-.1-.17-.15-.26-.05-.08-.09-.16-.13-.24l-.1-.16c-.09-.15-.18-.29-.28-.44l-.11-.16c-.13-.22-.27-.42-.41-.62-.05-.07-.1-.13-.15-.2-.09-.13-.18-.27-.29-.41l-.06-.08c-.12-.15-.24-.31-.36-.46-.15-.19-.3-.37-.45-.55-.15-.17-.31-.35-.46-.52-.16-.17-.31-.34-.48-.5-.16-.17-.32-.33-.48-.48-.16-.16-.33-.31-.49-.46-.16-.15-.33-.29-.5-.43-.15-.14-.31-.27-.47-.39-.03-.03-.07-.06-.1-.09-.16-.12-.31-.24-.46-.34-.15-.12-.3-.23-.44-.32-.13-.09-.25-.18-.41-.29h-.04c-.08-.07-.17-.14-.26-.19l-.05-.03c-.66-.43-1.36-.82-2.09-1.17l-.35-.17c-.11-.05-.22-.1-.33-.15-1.26-.57-2.59-1.02-3.94-1.34-.12-.02-.24-.05-.36-.08-.13-.03-.26-.06-.4-.08-1.63-.34-3.32-.51-5.02-.51-.67,0-1.35.03-2.01.08-.29.02-.57.05-.85.08-.34-.14-.71-.22-1.1-.22-.74,0-1.4.27-1.91.72-.02.02-.04.03-.05.05-.02.02-.03.03-.05.04-.04.04-.08.08-.11.12-.05.05-.09.09-.12.15-.08.09-.15.19-.22.3-.03.06-.07.12-.1.19-.09.17-.16.34-.21.53-.03.08-.05.17-.07.26,0,.02,0,.04-.01.06-.01.08-.02.17-.03.26,0,.07-.01.13-.01.2,0,.15.01.29.04.42,0,.03,0,.06.01.09,0,.05.02.11.03.17.04.12.07.24.12.36.05.15.12.29.2.42.09.14.18.27.29.4.03.04.06.07.1.11.03.04.07.08.1.11.05.05.1.09.15.13.04.04.1.08.15.11.02.02.04.04.05.04l.05.04h.01c.45.31,1,.48,1.59.48.91,0,1.74-.43,2.26-1.1.15-.01.3-.02.45-.03.41-.02.83-.04,1.25-.04,1.51,0,3,.16,4.44.47.08,0,.16.03.24.05.36.08.72.17,1.11.28h.04s.21.07.21.07c.25.08.51.16.75.25,0,0,.01,0,.02.01l.04.02h.05s.01.01.01.01c.34.12.67.25.98.38.05.02.09.04.13.06.08.03.16.07.23.1.59.26,1.16.56,1.72.88.09.05.18.1.29.18,0,0,.25.15.29.18l.05.03c.13.09.41.28.41.28.04.02.08.04.13.09.14.09.27.19.4.29.16.13.33.25.49.38.15.12.3.25.46.39.14.11.26.23.39.35l.07.06c.12.12.25.24.38.37l.08.08c.1.1.18.19.28.29.13.14.25.27.39.43.1.11.19.22.31.37.1.11.19.22.29.36.13.15.25.31.37.48.13.18.26.35.39.55.02.02.04.06.06.09.1.14.2.3.31.47.06.09.11.17.17.27.05.09.1.18.16.27l.05.09c.09.16.19.33.29.51.02.05.05.11.08.16.08.14.16.29.24.45.11.22.22.43.33.64.36.72.7,1.44,1.03,2.13l.15.31c.43.92.89,1.87,1.37,2.78,0,0,.03.05.06.12.09.15.22.4.27.5.02.03.04.06.06.1.96,1.72,2.49,4.11,4.89,5.48,1.14.66,2.39.99,3.7.99s2.75-.38,4.03-1.09c.41-.23.82-.49,1.21-.79,1.4,1.13,3.18,1.75,5.41,1.91.42.02.74.03,1.01.03h.11c4.47,0,8.49-1.84,11.29-5.19,2.38-2.83,3.79-6.94,3.79-10.99,0-1.81-.27-3.52-.81-5.05ZM103.44,53.54c-2.68,3.19-6.5,4.95-10.78,4.95h-.11c-.28,0-.59-.01-.97-.04-2.3-.16-4.09-.85-5.43-2.1-.49.41-1,.77-1.56,1.07-2.34,1.3-4.91,1.34-7.06.11-2.04-1.17-3.48-3.13-4.7-5.33-.11-.2-.22-.4-.32-.6-.54-1-1.02-2.04-1.51-3.07-.33-.69-.67-1.42-1.03-2.14-.12-.22-.23-.44-.35-.66-.1-.21-.21-.41-.32-.61-.12-.22-.23-.42-.35-.61-.05-.1-.11-.19-.16-.29-.06-.1-.13-.2-.19-.3-.12-.19-.25-.39-.38-.57-.13-.2-.26-.38-.39-.56l-.39-.51c-.1-.13-.2-.25-.31-.37-.11-.14-.22-.27-.33-.39-.12-.15-.26-.29-.39-.43-.1-.11-.19-.2-.29-.3-.03-.04-.06-.06-.09-.09-.13-.13-.26-.26-.39-.38h-.01c-.16-.16-.31-.3-.47-.43-.16-.14-.32-.28-.48-.41-.17-.13-.33-.26-.49-.38-.14-.11-.29-.21-.43-.31-.06-.05-.13-.09-.19-.13-.13-.09-.26-.18-.39-.27-.01,0-.02-.01-.02-.01-.01-.01-.02-.01-.03-.02-.1-.06-.2-.12-.3-.18-.1-.07-.2-.13-.3-.19-.39-.22-.77-.43-1.17-.62-.28-.14-.56-.27-.84-.39-.42-.18-.84-.35-1.27-.49-.29-.11-.59-.2-.88-.29h-.01c-.43-.13-.86-.24-1.3-.34-.3-.07-.6-.13-.91-.18h-.01c-1.75-.32-3.52-.41-5.2-.31-.26.01-.52.03-.77.05-.72.07-1.43.16-2.11.29-.41.07-.82.16-1.23.25-.09-.07-.17-.15-.25-.25-.34-.39-.52-.9-.52-1.42,0-.34.08-.69.25-1.01.09-.2.23-.38.37-.53h0c.32-.07.65-.13.97-.19.52-.1,1.06-.18,1.6-.24.33-.04.67-.07,1.01-.1,2.2-.17,4.53-.06,6.85.42.24.05.48.1.73.16,1.29.3,2.57.73,3.82,1.3.23.09.46.2.68.31.68.33,1.35.71,2,1.12.1.07.21.13.31.2.02.02.04.03.06.05.13.07.25.16.36.24.15.1.29.2.43.31.16.12.32.24.48.37.02.01.03.02.04.03.16.13.32.26.48.39.16.14.32.28.48.43.16.14.32.29.48.44.16.15.31.31.47.47.15.16.31.31.46.48.15.17.3.34.44.51.15.17.3.35.44.53.14.18.28.35.42.54.14.19.28.38.42.58.13.19.27.39.4.59.12.2.25.39.37.59.01.02.03.04.03.06.12.19.23.38.34.58.12.21.24.42.35.64.12.21.22.41.34.62.11.22.22.44.33.66.17.33.32.66.48.99.16.32.32.65.47.97l.06.13c.44.93.87,1.85,1.32,2.72.11.21.22.42.33.62,1.04,1.9,2.19,3.49,3.73,4.37,1.44.83,3.19.78,4.82-.12.33-.18.64-.39.94-.64-.44-1.09-.67-2.34-.62-3.56.06-1.56.57-2.93,1.45-3.87.69-.74,1.5-1.06,2.27-.9.72.14,1.32.65,1.69,1.44.6,1.27.49,2.95.21,4-.29,1.1-.74,2.14-1.35,3.09.91.68,2.13,1.08,3.66,1.18,3.89.28,7.47-1.18,9.84-4,2.63-3.13,3.59-8.12,2.28-11.85-.68-1.93-2.1-3.5-3.8-4.19-1.21-.49-2.39-.49-3.42.02-.31.15-.64.15-.96,0-.28-.13-.52-.39-.66-.71-.12-.24-.17-.5-.17-.79,0-.65.31-1.23.81-1.47,1.62-.79,3.44-.81,5.26-.07,2.39.97,4.4,3.2,5.37,5.95.53,1.5.78,3.15.78,4.83,0,3.8-1.3,7.77-3.63,10.56Z"/>
      <path class="cls-3" d="M106.29,38.15c-.97-2.75-2.98-4.98-5.37-5.95-1.82-.74-3.64-.72-5.26.07-.5.24-.81.82-.81,1.47,0,.29.05.55.17.79.14.32.38.58.66.71.32.15.65.15.96,0,1.03-.51,2.21-.51,3.42-.02,1.7.69,3.12,2.26,3.8,4.19,1.31,3.73.35,8.72-2.28,11.85-2.37,2.82-5.95,4.28-9.84,4-1.53-.1-2.75-.5-3.66-1.18.61-.95,1.06-1.99,1.35-3.09.28-1.05.39-2.73-.21-4-.37-.79-.97-1.3-1.69-1.44-.77-.16-1.58.16-2.27.9-.88.94-1.39,2.31-1.45,3.87-.05,1.22.18,2.47.62,3.56-.3.25-.61.46-.94.64-1.63.9-3.38.95-4.82.12-1.54-.88-2.69-2.47-3.73-4.37-.11-.2-.22-.41-.33-.62-.45-.87-.88-1.79-1.32-2.72l-.06-.13c-.15-.32-.31-.65-.47-.97-.16-.33-.31-.66-.48-.99-.11-.22-.22-.44-.33-.66-.12-.21-.22-.41-.34-.62-.11-.22-.23-.43-.35-.64-.11-.2-.22-.39-.34-.58,0-.02-.02-.04-.03-.06-.12-.2-.25-.39-.37-.59-.13-.2-.27-.4-.4-.59-.14-.2-.28-.39-.42-.58-.14-.19-.28-.36-.42-.54-.14-.18-.29-.36-.44-.53-.14-.17-.29-.34-.44-.51-.15-.17-.31-.32-.46-.48-.16-.16-.31-.32-.47-.47-.16-.15-.32-.3-.48-.44-.16-.15-.32-.29-.48-.43-.16-.13-.32-.26-.48-.39-.01,0-.02-.02-.04-.03-.16-.13-.32-.25-.48-.37-.14-.11-.28-.21-.43-.31-.11-.08-.23-.17-.36-.24-.02-.02-.04-.03-.06-.05-.1-.07-.21-.13-.31-.2-.65-.41-1.32-.79-2-1.12-.22-.11-.45-.22-.68-.31-1.25-.57-2.53-1-3.82-1.3-.25-.06-.49-.11-.73-.16-2.32-.48-4.65-.59-6.85-.42-.34.03-.68.06-1.01.1-.54.06-1.08.14-1.6.24-.32.06-.65.12-.97.19h0c-.14.15-.28.33-.37.53-.17.32-.25.67-.25,1.01,0,.52.18,1.03.52,1.42.08.1.16.18.25.25.41-.09.82-.18,1.23-.25.68-.13,1.39-.22,2.11-.29.25-.02.51-.04.77-.05,1.68-.1,3.45-.01,5.2.31h.01c.31.05.61.11.91.18.44.1.87.21,1.3.34h.01c.29.09.59.18.88.29.43.14.85.31,1.27.49.28.12.56.25.84.39.4.19.78.4,1.17.62.1.06.2.12.3.19.1.06.2.12.3.18.01.01.02.01.03.02,0,0,.01.01.02.01.13.09.26.18.39.27.06.04.13.08.19.13.14.1.29.2.43.31.16.12.32.25.49.38.16.13.32.27.48.41.16.13.31.27.47.42h.01c.13.13.26.26.39.39.03.03.06.05.09.09.1.1.19.19.29.3.13.14.27.28.39.43.11.12.22.25.33.39.11.12.21.24.31.37l.39.51c.13.18.26.36.39.56.13.18.26.38.38.57.06.1.13.2.19.3.05.1.11.19.16.29.12.19.23.39.35.61.11.2.22.4.32.61.12.22.23.44.35.66.36.72.7,1.45,1.03,2.14.49,1.03.97,2.07,1.51,3.07.1.2.21.4.32.6,1.22,2.2,2.66,4.16,4.7,5.33,2.15,1.23,4.72,1.19,7.06-.11.56-.3,1.07-.66,1.56-1.07,1.34,1.25,3.13,1.94,5.43,2.1.38.03.69.04.97.04h.11c4.28,0,8.1-1.76,10.78-4.95,2.33-2.79,3.63-6.76,3.63-10.56,0-1.68-.25-3.33-.78-4.83ZM87.28,50.11c-.21.79-.52,1.53-.94,2.2-.2-.58-.3-1.23-.28-1.85.03-.56.17-1.34.68-1.89.17-.19.33-.27.41-.27h.02s.06.01.1.11c.16.34.17,1.11.01,1.7Z"/>
      <path class="cls-1" d="M87.28,50.11c-.21.79-.52,1.53-.94,2.2-.2-.58-.3-1.23-.28-1.85.03-.56.17-1.34.68-1.89.17-.19.33-.27.41-.27h.02s.06.01.1.11c.16.34.17,1.11.01,1.7Z"/>
      <path class="cls-3" d="M59.08,37.15c-.07-.01-.14-.02-.21-.04-.08-.02-.15-.04-.23-.06-.07-.03-.15-.05-.22-.08-.07-.03-.14-.06-.21-.1h.06c.25.08.51.16.75.25,0,0,.01,0,.02.01l.04.02Z"/>
      <path class="cls-3" d="M59.13,37.16h-.03s.02-.01.02-.01h0Z"/>
      <path class="cls-3" d="M59.08,37.15c-.07-.01-.14-.02-.21-.04-.08-.02-.15-.04-.23-.06-.07-.03-.15-.05-.22-.08-.07-.03-.14-.06-.21-.1h.06c.25.08.51.16.75.25,0,0,.01,0,.02.01l.04.02Z"/>
    </g>
    <g>
      <path class="cls-1" d="M83.5,29.5c0,7.58-2.86,14.76-8.06,20.26-.08-.14-.15-.28-.23-.42-.04-.07-.07-.14-.1-.21,4.79-5.15,7.72-12.05,7.72-19.63,0-15.93-12.91-28.83-28.83-28.83s-28.82,12.9-28.82,28.83c0,4.08.85,7.96,2.38,11.48.01.01.01.02.01.03.11.23.21.47.32.7.11.23.22.47.34.7.23.45.47.91.72,1.35.12.2.23.39.35.58,5.04,8.38,14.21,13.98,24.7,13.98,6.8,0,13.04-2.35,17.97-6.29.09.15.22.4.27.5.02.03.04.06.06.1-5.19,4.11-11.66,6.37-18.3,6.37-10.35,0-19.98-5.48-25.3-14.34-.11-.19-.22-.38-.33-.56-.01,0-.01-.02-.01-.02-.5-.86-.96-1.8-1.39-2.76,0-.01-.01-.03-.01-.04-.09-.19-.17-.39-.25-.58-1.47-3.56-2.21-7.32-2.21-11.2C24.5,13.23,37.74,0,54,0s29.5,13.23,29.5,29.5Z"/>
      <g>
        <path class="cls-2" d="M82.83,29.5c0,7.58-2.93,14.48-7.72,19.63-.4-.78-.79-1.59-1.2-2.47l-.07-.15s-.36-.75-.47-.98c-.16-.33-.32-.66-.48-.98-.11-.23-.23-.45-.35-.68l-.33-.63c-.12-.22-.24-.44-.36-.65-.05-.09-.1-.17-.15-.26t.01-.02c.13-.18.26-.35.38-.54.03-.05.07-.1.1-.15.1-.15.2-.3.29-.45.13-.2.25-.39.36-.59.11-.17.2-.34.29-.5.05-.08.09-.16.13-.25.08-.14.16-.29.23-.44.09-.17.17-.34.25-.51.03-.06.06-.12.09-.18.09-.2.18-.41.27-.61.02-.05.04-.11.07-.17.08-.19.15-.38.22-.57.04-.08.07-.17.1-.26.08-.22.16-.44.23-.65.09-.27.17-.54.25-.81.01-.04.02-.07.03-.11.06-.21.11-.41.16-.62.07-.24.12-.49.17-.73.03-.14.06-.27.08-.4.04-.17.07-.33.1-.51.01-.09.03-.18.04-.28.04-.25.07-.51.1-.76.03-.24.06-.47.08-.71,0-.05.01-.11.01-.17.02-.26.04-.53.05-.8.01-.29.02-.59.02-.88,0-11.94-9.69-21.62-21.62-21.62s-21.62,9.68-21.62,21.62c0,2.8.53,5.47,1.5,7.94.38.96.83,1.89,1.34,2.78,3.72,6.51,10.74,10.9,18.78,10.9.23,0,.46-.01.68-.01.14-.01.28-.01.41-.02.58-.03,1.14-.08,1.7-.15.15-.02.3-.04.45-.06.3-.05.58-.1.87-.15.11-.02.22-.05.34-.07.1-.02.21-.04.31-.07.12-.02.23-.05.34-.08.14-.03.28-.07.42-.1.28-.08.55-.15.82-.24.17-.05.33-.1.49-.16.1-.02.19-.06.27-.09.14-.04.27-.09.4-.14.15-.06.31-.11.46-.17.93-.37,1.82-.8,2.68-1.29.27-.15.54-.31.8-.48.29-.18.58-.37.86-.57.14-.09.27-.19.4-.28.14-.1.27-.2.39-.29.14-.1.27-.2.39-.31.13-.1.26-.2.38-.31.25-.21.5-.42.74-.64.08.14.16.29.24.45.11.22.22.43.33.64.36.72.7,1.44,1.03,2.13l.15.31c.43.92.89,1.87,1.37,2.78,0,0,.03.05.06.12-4.93,3.94-11.17,6.29-17.97,6.29-10.49,0-19.66-5.6-24.7-13.98-.12-.19-.23-.38-.35-.58-.25-.44-.49-.9-.72-1.35-.12-.23-.23-.47-.34-.7-.11-.23-.21-.47-.32-.7,0-.01,0-.02-.01-.03-1.53-3.52-2.38-7.4-2.38-11.48C25.18,13.57,38.08.67,54,.67s28.83,12.9,28.83,28.83Z"/>
        <path class="cls-1" d="M75.81,29.66c0,.29,0,.59-.02.88-.01.27-.03.54-.05.8,0,.06-.01.12-.01.17-.02.24-.05.47-.08.71-.03.25-.06.51-.1.76-.01.1-.03.19-.04.28-.03.18-.06.34-.1.51-.02.13-.05.26-.08.4-.05.24-.1.49-.17.73-.05.21-.1.41-.16.62,0,.04-.02.07-.03.11-.08.27-.16.54-.25.81-.07.21-.15.43-.23.65-.03.09-.06.18-.1.26-.07.19-.14.38-.22.57-.03.06-.05.12-.07.17-.09.2-.18.41-.27.61-.03.06-.06.12-.09.18-.08.17-.16.34-.25.51-.07.15-.15.3-.23.44-.04.09-.08.17-.13.25-.09.16-.18.33-.29.5-.11.2-.23.39-.36.59-.09.15-.19.3-.29.45-.03.05-.07.1-.1.15-.12.19-.25.36-.38.54t-.01.02c-.05-.08-.09-.16-.13-.24l-.1-.16c-.09-.15-.18-.29-.28-.44l-.11-.16c-.13-.22-.27-.42-.41-.62-.05-.07-.1-.13-.15-.2.17-.25.33-.51.48-.77.11-.17.21-.35.32-.53.12-.22.24-.44.35-.66.1-.19.19-.38.28-.57.05-.09.08-.18.13-.28.01-.02.02-.04.03-.07.05-.12.11-.25.16-.38.02-.04.04-.08.05-.13.02-.03.04-.07.05-.1.07-.17.14-.34.2-.51.01-.03.03-.07.03-.1.07-.15.12-.31.17-.46.04-.12.08-.24.12-.36.03-.1.06-.21.09-.32.05-.14.09-.29.13-.43,0-.04.02-.08.03-.12.03-.11.06-.22.08-.32.02-.07.04-.14.05-.21.04-.16.08-.32.11-.48.02-.07.03-.15.05-.22.03-.17.06-.33.09-.49.02-.11.03-.21.05-.31.01-.1.03-.2.04-.3.02-.17.05-.33.07-.49.02-.22.04-.44.06-.66,0-.15.02-.31.03-.47.01-.12.01-.24.02-.36.01-.25.01-.5.01-.75,0-10.82-8.8-19.62-19.61-19.62s-19.62,8.8-19.62,19.62c0,2.48.46,4.86,1.3,7.04.38.98.83,1.91,1.35,2.8,3.4,5.84,9.73,9.78,16.97,9.78.2,0,.4-.01.6-.01h.03c.13-.01.26-.01.39-.02.17-.01.34-.02.51-.04.14,0,.29-.02.43-.03.11-.02.23-.03.34-.04.2-.02.4-.05.59-.08.12-.01.24-.03.35-.06.2-.03.4-.06.59-.1.16-.03.31-.06.47-.1.15-.03.3-.07.46-.11.14-.04.29-.07.43-.11.14-.04.29-.08.43-.12.1-.04.2-.07.31-.1.14-.05.3-.1.44-.15.16-.05.32-.11.47-.17s.3-.11.45-.17c.2-.08.41-.17.61-.26.13-.06.25-.11.36-.17.12-.05.24-.11.36-.17.14-.07.29-.14.43-.21.43-.23.85-.47,1.26-.72.25-.16.5-.32.75-.49.02,0,.03-.02.05-.04.13-.09.26-.18.39-.27.13-.1.26-.2.38-.29.01,0,.02-.01.02-.01.12-.1.24-.19.36-.29.2-.16.4-.33.6-.49.04-.04.08-.08.13-.12.18-.16.35-.32.52-.48.01-.01.02-.02.03-.03.1.14.2.3.31.47.06.09.11.17.17.27.05.09.1.18.16.27l.05.09c.09.16.19.33.29.51.02.05.05.11.08.16-.24.22-.49.43-.74.64-.12.11-.25.21-.38.31-.12.11-.25.21-.39.31-.12.09-.25.19-.39.29-.13.09-.26.19-.4.28-.28.2-.57.39-.86.57-.26.17-.53.33-.8.48-.86.49-1.75.92-2.68,1.29-.15.06-.31.11-.46.17-.13.05-.26.1-.4.14-.08.03-.17.07-.27.09-.16.06-.32.11-.49.16-.27.09-.54.16-.82.24-.14.03-.28.07-.42.1-.11.03-.22.06-.34.08-.1.03-.21.05-.31.07-.12.02-.23.05-.34.07-.29.05-.57.1-.87.15-.15.02-.3.04-.45.06-.56.07-1.12.12-1.7.15-.13.01-.27.01-.41.02-.22,0-.45.01-.68.01-8.04,0-15.06-4.39-18.78-10.9-.51-.89-.96-1.82-1.34-2.78-.97-2.47-1.5-5.14-1.5-7.94,0-11.94,9.68-21.62,21.62-21.62s21.62,9.68,21.62,21.62Z"/>
      </g>
      <g>
        <path class="cls-2" d="M58.24,36.87c-.08-.02-.14-.04-.18-.06h-.04s.07.06.07.06h.12c.07.04.14.07.21.1.07.03.15.05.22.08.08.02.15.04.23.06.07.02.14.03.21.04-.12-.04-.57-.18-.84-.28ZM46.07,36.15c-.11-.13-.2-.26-.29-.4.08.14.17.27.28.4.04.04.07.07.11.11-.04-.04-.07-.07-.1-.11Z"/>
        <path class="cls-2" d="M54.19,10.04c-10.82,0-19.62,8.8-19.62,19.62,0,2.48.46,4.86,1.3,7.04.38.98.83,1.91,1.35,2.8,3.4,5.84,9.73,9.78,16.97,9.78.2,0,.4-.01.6-.01h.03c.13-.01.26-.01.39-.02.17-.01.34-.02.51-.04.14,0,.29-.02.43-.03.11-.02.23-.03.34-.04.2-.02.4-.05.59-.08.12-.01.24-.03.35-.06.2-.03.4-.06.59-.1.16-.03.31-.06.47-.1.15-.03.3-.07.46-.11.14-.04.29-.07.43-.11.14-.04.29-.08.43-.12.1-.04.2-.07.31-.1.14-.05.3-.1.44-.15.16-.05.32-.11.47-.17s.3-.11.45-.17c.2-.08.41-.17.61-.26.13-.06.25-.11.36-.17.12-.05.24-.11.36-.17.14-.07.29-.14.43-.21.43-.23.85-.47,1.26-.72.25-.16.5-.32.75-.49.02,0,.03-.02.05-.04.13-.09.26-.18.39-.27.13-.1.26-.2.38-.29.01,0,.02-.01.02-.01.12-.1.24-.19.36-.29.2-.16.4-.33.6-.49.04-.04.08-.08.13-.12.18-.16.35-.32.52-.48.01-.01.02-.02.03-.03-.02-.03-.04-.07-.06-.09-.13-.2-.26-.37-.39-.55-.12-.17-.24-.33-.37-.48-.1-.14-.19-.25-.29-.36-.12-.15-.21-.26-.31-.37-.14-.16-.26-.29-.39-.43-.1-.1-.18-.19-.28-.29l-.08-.08c-.13-.13-.26-.25-.38-.37l-.07-.06c-.13-.12-.25-.24-.39-.35-.16-.14-.31-.27-.46-.39-.16-.13-.33-.25-.49-.38-.13-.1-.26-.2-.4-.29-.05-.05-.09-.07-.13-.09,0,0-.28-.19-.41-.28l-.05-.03s-.29-.18-.29-.18c-.11-.08-.2-.13-.29-.18-.56-.32-1.13-.62-1.72-.88-.07-.03-.15-.07-.23-.1-.04-.02-.08-.04-.13-.06-.31-.13-.64-.26-.98-.38h-.04s-.01-.01-.02-.01c-.07-.01-.14-.02-.21-.04-.08-.02-.15-.04-.23-.06-.07-.03-.15-.05-.22-.08-.07-.03-.14-.06-.21-.1h-.12l-.07-.07c-.39-.11-.75-.2-1.11-.28-.08-.02-.16-.04-.24-.05-1.44-.31-2.93-.47-4.44-.47-.42,0-.84.02-1.25.04-.15.01-.3.02-.45.03-.52.67-1.35,1.1-2.26,1.1-.59,0-1.14-.17-1.59-.48h-.01l-.05-.04s-.03-.02-.05-.04c-.05-.03-.11-.07-.15-.11-.05-.04-.1-.08-.15-.13-.03-.03-.07-.07-.1-.11-.04-.04-.07-.07-.11-.11-.11-.13-.2-.26-.28-.4-.08-.13-.15-.27-.2-.42-.05-.12-.08-.24-.12-.36-.01-.06-.02-.12-.03-.17-.01-.03-.01-.06-.01-.09-.03-.13-.04-.27-.04-.42,0-.07.01-.13.01-.2.01-.09.02-.18.03-.26.01-.02.01-.04.01-.06.02-.09.04-.18.07-.26.05-.19.12-.36.21-.53.03-.07.07-.13.1-.19.07-.11.14-.21.22-.3.03-.06.07-.1.12-.15.03-.04.07-.08.11-.12.02-.01.03-.02.05-.04.01-.02.03-.03.05-.05.51-.45,1.17-.72,1.91-.72.39,0,.76.08,1.1.22.28-.03.56-.06.85-.08.66-.05,1.34-.08,2.01-.08,1.7,0,3.39.17,5.02.51.14.02.27.05.4.08.5-.41,1.14-.65,1.83-.65,1.36,0,2.51.94,2.8,2.22l.35.17c.73.35,1.43.74,2.09,1.17l.05.03c.09.05.18.12.26.18h.04c.16.12.28.21.41.3.14.09.29.2.44.32.15.1.3.22.46.34.03.03.07.06.1.09.16.12.32.25.47.39.17.14.34.28.5.43.16.15.33.3.49.46.16.15.32.31.48.48.17.16.32.33.48.5.15.17.31.35.46.52.15.18.3.36.45.55.12.15.24.31.36.46l.06.08c.11.14.2.28.29.41.17-.25.33-.51.48-.77.11-.17.21-.35.32-.53.12-.22.24-.44.35-.66.1-.19.19-.38.28-.57.05-.09.08-.18.13-.28.01-.02.02-.04.03-.07.05-.12.11-.25.16-.38.02-.04.04-.08.05-.13.02-.03.04-.07.05-.1.07-.17.14-.34.2-.51.01-.03.03-.07.03-.1.07-.15.12-.31.17-.46.04-.12.08-.24.12-.36.03-.1.06-.21.09-.32.05-.14.09-.29.13-.43,0-.04.02-.08.03-.12.03-.11.06-.22.08-.32.02-.07.04-.14.05-.21.04-.16.08-.32.11-.48.02-.07.03-.15.05-.22.03-.17.06-.33.09-.49.02-.11.03-.21.05-.31.01-.1.03-.2.04-.3.02-.17.05-.33.07-.49.02-.22.04-.44.06-.66,0-.15.02-.31.03-.47.01-.12.01-.24.02-.36.01-.25.01-.5.01-.75,0-10.82-8.8-19.62-19.61-19.62ZM48.32,27.53c-1.59,0-2.88-1.3-2.88-2.88s1.29-2.89,2.88-2.89,2.88,1.29,2.88,2.89-1.29,2.88-2.88,2.88ZM59.48,27.53c-1.6,0-2.88-1.3-2.88-2.88s1.28-2.89,2.88-2.89,2.88,1.29,2.88,2.89-1.29,2.88-2.88,2.88Z"/>
        <path class="cls-1" d="M62.28,33.63c-.11-.05-.22-.1-.33-.15-1.26-.57-2.59-1.02-3.94-1.34-.12-.02-.24-.05-.36-.08.5-.41,1.14-.65,1.83-.65,1.36,0,2.51.94,2.8,2.22Z"/>
        <circle class="cls-1" cx="59.48" cy="24.65" r="2.88" transform="translate(-4.9 24.64) rotate(-22.5)"/>
        <circle class="cls-1" cx="48.32" cy="24.65" r="2.88" transform="translate(13.23 66.01) rotate(-76.72)"/>
      </g>
    </g>
  </g>
  <g>
    <path class="cls-4" d="M7.45,76.66c-3.43,0-6.64-2.81-6.64-6.49s2.96-6.63,6.64-6.63,6.66,2.95,6.66,6.56-3.01,6.56-6.66,6.56ZM7.43,64.68c-2.97,0-5.37,2.54-5.37,5.48s2.46,5.34,5.39,5.34,5.4-2.48,5.4-5.4-2.4-5.43-5.42-5.43Z"/>
    <path class="cls-4" d="M15.95,76.43v-9.37h1.19v1.35h.03c.41-.98,1.12-1.51,2.62-1.59v1.27h-.02c-1.72.17-2.63,1.3-2.63,2.81v5.53h-1.19Z"/>
    <path class="cls-4" d="M29.15,76.43v-1.64h-.03c-.82,1.22-2.17,1.87-3.62,1.87-2.79,0-4.99-2.12-4.99-4.93s2.28-4.9,4.99-4.9c1.44,0,2.82.69,3.62,1.85h.03v-4.92h1.19v12.68h-1.19ZM29.21,71.76c0-2.09-1.61-3.85-3.74-3.85s-3.79,1.66-3.79,3.87,1.6,3.8,3.81,3.8c2.06,0,3.72-1.7,3.72-3.82Z"/>
    <path class="cls-4" d="M32.58,65.92v-2.16h1.19v2.16h-1.19ZM32.58,76.43v-9.37h1.19v9.37h-1.19Z"/>
    <path class="cls-4" d="M42.96,76.43v-5.22c0-2.11-1.26-3.31-2.89-3.31-1.8,0-2.9,1.39-2.9,3.22v5.31h-1.19v-9.37h1.19v1.2h.03c.59-.91,1.65-1.44,2.85-1.44,2.57,0,4.09,1.78,4.09,4.39v5.22h-1.19Z"/>
    <path class="cls-4" d="M54.6,76.43v-1.64h-.03c-.76,1.16-2.11,1.87-3.62,1.87-2.79,0-4.99-2.12-4.99-4.93s2.28-4.9,4.99-4.9c1.55,0,2.87.7,3.62,1.88h.03v-1.64h1.19v9.37h-1.19ZM54.67,71.76c0-2.09-1.63-3.85-3.74-3.85s-3.79,1.64-3.79,3.87,1.61,3.8,3.81,3.8c2.07,0,3.72-1.71,3.72-3.82Z"/>
    <path class="cls-4" d="M57.95,76.43v-12.68h1.19v12.68h-1.19Z"/>
    <path class="cls-4" d="M75.89,76.43l-2.77-10.4h-.03l-2.75,10.4h-1.61l-3.58-12.68h1.29l3.07,11.05h.03l2.99-11.05h1.17l3.01,11.03h.03l3.07-11.03h1.27l-3.6,12.68h-1.6Z"/>
    <path class="cls-4" d="M82.28,72.18c.1,1.87,1.8,3.39,3.6,3.39,1.44,0,2.82-.84,3.33-2.21h1.26c-.71,2.02-2.58,3.29-4.57,3.29-2.63,0-4.84-2.16-4.84-4.9s2.23-4.93,4.82-4.93c2.79,0,4.88,2.42,4.88,5,0,.12-.02.24-.02.36h-8.46ZM89.53,71.11c-.34-1.88-1.82-3.2-3.65-3.2-1.73,0-3.28,1.27-3.6,3.2h7.25Z"/>
    <path class="cls-4" d="M100.81,76.43v-1.64h-.03c-.76,1.16-2.11,1.87-3.62,1.87-2.79,0-4.99-2.12-4.99-4.93s2.28-4.9,4.99-4.9c1.55,0,2.87.7,3.62,1.88h.03v-1.64h1.19v9.37h-1.19ZM100.88,71.76c0-2.09-1.63-3.85-3.74-3.85s-3.79,1.64-3.79,3.87,1.61,3.8,3.8,3.8c2.07,0,3.72-1.71,3.72-3.82Z"/>
    <path class="cls-4" d="M104.16,76.43v-9.37h1.19v1.35h.03c.41-.98,1.12-1.51,2.62-1.59v1.27h-.02c-1.72.17-2.63,1.3-2.63,2.81v5.53h-1.19Z"/>
  </g>
</svg>